<svg xmlns="http://www.w3.org/2000/svg" viewBox="0 0 209.37 63.46"><defs><style>.cls-1{fill:#fff;}</style></defs><g id="レイヤー_2" data-name="レイヤー 2"><g id="レイヤー_1-2" data-name="レイヤー 1"><path class="cls-1" d="M9.11,12h9v5.34A9.46,9.46,0,0,1,15.54,24a8.84,8.84,0,0,1-6.46,2.72,8.74,8.74,0,0,1-5-1.51,8.69,8.69,0,0,1-3-3.21c-.19-.39-.36-.77-.51-1.13a7.23,7.23,0,0,1-.35-1.41A46,46,0,0,1,0,13.35,46.21,46.21,0,0,1,.26,7.22a7.38,7.38,0,0,1,.86-2.5,8.92,8.92,0,0,1,3-3.24A8.51,8.51,0,0,1,9.08,0a8.4,8.4,0,0,1,6,2.25A10,10,0,0,1,18,7.78H13.93a5.9,5.9,0,0,0-1.72-2.72A4.91,4.91,0,0,0,9.07,4a5.12,5.12,0,0,0-2.34.56,4.84,4.84,0,0,0-1.6,1.35,4.36,4.36,0,0,0-1,2.19,32,32,0,0,0-.28,5.29,31.35,31.35,0,0,0,.28,5.25,4.47,4.47,0,0,0,1,2.22,4.42,4.42,0,0,0,1.6,1.31,4.44,4.44,0,0,0,2.35.6,4.85,4.85,0,0,0,3.72-1.59,5.59,5.59,0,0,0,1.5-4V15.77H9.11Z"/><path class="cls-1" d="M23.43.67h3.51V4.3L23.43,6.92Z"/><path class="cls-1" d="M29.88,20.51a7.21,7.21,0,0,0,5.54,2.31,4.53,4.53,0,0,0,2.48-.61,1.9,1.9,0,0,0,1-1.7,1.53,1.53,0,0,0-.57-1.36,2.92,2.92,0,0,0-1.57-.43l-3.11-.28A5.82,5.82,0,0,1,30,16.91a4.69,4.69,0,0,1-1.45-3.6,4.94,4.94,0,0,1,1.9-4.18,7.46,7.46,0,0,1,4.62-1.39,12.9,12.9,0,0,1,2.17.16,9.78,9.78,0,0,1,1.81.49A10.37,10.37,0,0,1,42,10.21l-2.18,2.62a10.93,10.93,0,0,0-2.14-1.24,7.06,7.06,0,0,0-2.57-.44,3.39,3.39,0,0,0-2.31.61,2,2,0,0,0-.69,1.57,1.23,1.23,0,0,0,.52,1.06,3,3,0,0,0,1.79.64l2.9.23a5.39,5.39,0,0,1,4,1.7,5.94,5.94,0,0,1,1.13,3.71,4.72,4.72,0,0,1-2.07,4.06,8.86,8.86,0,0,1-5.17,1.5A10.91,10.91,0,0,1,27.43,23Z"/><path class="cls-1" d="M68.61,20.35H59.29L57.41,26H53.47L62.39.67h3.12L74.43,26H70.51Zm-1.06-3.41L64,5.85h-.06L60.37,16.94Z"/><path class="cls-1" d="M95.37,18.94a9.5,9.5,0,0,1-3.08,5.41,8.6,8.6,0,0,1-5.54,1.88,8.85,8.85,0,0,1-7.7-4.56c-.18-.38-.34-.75-.48-1.09a7.07,7.07,0,0,1-.34-1.36A43.66,43.66,0,0,1,78,13.34a43.59,43.59,0,0,1,.25-5.91A7.21,7.21,0,0,1,79.05,5a8.7,8.7,0,0,1,2.87-3.13A8.27,8.27,0,0,1,86.75.46a8.12,8.12,0,0,1,5.79,2.17A9.55,9.55,0,0,1,95.37,8H91.43a5.69,5.69,0,0,0-1.66-2.62,4.77,4.77,0,0,0-3-1.06,4.93,4.93,0,0,0-2.26.54,4.65,4.65,0,0,0-1.55,1.31,4.22,4.22,0,0,0-1,2.11,31.16,31.16,0,0,0-.27,5.1A30.55,30.55,0,0,0,82,18.41a4.28,4.28,0,0,0,1,2.15,4.44,4.44,0,0,0,1.55,1.27,4.29,4.29,0,0,0,2.26.57c2.09,0,3.66-1.15,4.69-3.46Z"/><path class="cls-1" d="M113,20.35h-9.31L101.78,26H97.84L106.77.67h3.11L118.81,26h-3.93Zm-1.06-3.41L108.37,5.85h-.07l-3.55,11.09Z"/><path class="cls-1" d="M122.47.67h8.59a8.2,8.2,0,0,1,7.49,4.27,7.74,7.74,0,0,1,1.12,3,51.12,51.12,0,0,1,.19,5.41,38.06,38.06,0,0,1-.29,5.71,6.6,6.6,0,0,1-.4,1.46,13.9,13.9,0,0,1-.69,1.3,8.77,8.77,0,0,1-3,3A8.36,8.36,0,0,1,130.81,26h-8.34Zm3.72,21.73h4.45a5,5,0,0,0,4.56-2.21,4.36,4.36,0,0,0,.79-2.07c.1-.83.15-2.37.15-4.64s0-3.79-.15-4.74a4.58,4.58,0,0,0-1-2.32,4.9,4.9,0,0,0-4.39-2.14h-4.45Z"/><path class="cls-1" d="M145.26.67H161V4.28H149v7.26H159.2v3.4H149V22.4h12V26H145.26Z"/><path class="cls-1" d="M166.13.67h3.51l7,16.52L183.59.67h3.51V26h-3.72V10.21h-.08l-5.14,12.17h-3.1l-5.14-12.17h-.07V26h-3.72Z"/><path class="cls-1" d="M198.47,15.59,191.08.67H195l5.2,11.24L205.43.67h3.94L202,15.58V26h-3.51Z"/><path class="cls-1" d="M47.48,39.72h8a7.62,7.62,0,0,1,6.94,4,7.32,7.32,0,0,1,1.05,2.78c.11,1,.17,2.64.17,5a36.63,36.63,0,0,1-.26,5.3A6.31,6.31,0,0,1,63,58.14a13,13,0,0,1-.64,1.21,8.08,8.08,0,0,1-2.79,2.75,7.73,7.73,0,0,1-4.33,1.16H47.48ZM50.93,59.9h4.13a4.64,4.64,0,0,0,4.23-2A4,4,0,0,0,60,55.92c.09-.76.14-2.2.14-4.3s-.05-3.52-.14-4.4a4.13,4.13,0,0,0-.89-2.15,4.54,4.54,0,0,0-4.08-2H50.93Z"/><path class="cls-1" d="M70.8,56.16a4,4,0,0,0,1.12,3.07,3.7,3.7,0,0,0,2.76,1.06,4.79,4.79,0,0,0,3.55-1.63l2.36,2.08a7.54,7.54,0,0,1-5.84,2.72,8.11,8.11,0,0,1-2.5-.39,5.65,5.65,0,0,1-1.19-.57,5.39,5.39,0,0,1-1.14-.76,6.63,6.63,0,0,1-1.68-2.61,10.63,10.63,0,0,1-.7-4.2,11.88,11.88,0,0,1,.61-4.13,7.32,7.32,0,0,1,1.56-2.65,5.75,5.75,0,0,1,2.18-1.42,6.77,6.77,0,0,1,2.34-.44,6.64,6.64,0,0,1,4.71,1.89,7,7,0,0,1,2,5.2v2.78Zm6.86-2.78a4.35,4.35,0,0,0-1-3,3.51,3.51,0,0,0-4.82,0,4.55,4.55,0,0,0-1,3Z"/><path class="cls-1" d="M82.9,46.5h3.46l3.81,11.75h.06L94,46.5H97.5l-6,16.76H88.86Z"/><path class="cls-1" d="M107.38,60.1l8.92-11.52a4.58,4.58,0,0,0,.71-1.3,5.07,5.07,0,0,0,.12-1.06,3.54,3.54,0,0,0-.8-2.32,3,3,0,0,0-2.35-1,3,3,0,0,0-2.24.89,3.9,3.9,0,0,0-1.1,2.51h-3.26a7.3,7.3,0,0,1,1.91-4.85,6,6,0,0,1,4.43-1.9,6.4,6.4,0,0,1,4.78,1.94A7,7,0,0,1,119,50.4l-7.35,9.5h8.72v3.36h-13Z"/><path class="cls-1" d="M123.58,60.1l8.93-11.52a4.53,4.53,0,0,0,.7-1.3,5.11,5.11,0,0,0,.13-1.06,3.59,3.59,0,0,0-.8-2.32,3,3,0,0,0-2.36-1,3.06,3.06,0,0,0-2.24.89,4,4,0,0,0-1.1,2.51h-3.26a7.35,7.35,0,0,1,1.91-4.85,6,6,0,0,1,4.43-1.9,6.39,6.39,0,0,1,4.78,1.94,6.71,6.71,0,0,1,1.9,4.79,6.64,6.64,0,0,1-1.38,4.14l-7.34,9.5h8.72v3.36h-13Z"/><path class="cls-1" d="M141.38,44.21h2.76v4.32h2v2.18h-2V59c0,.72.31,1.07,1,1.05h1v2.68h-1.44a3.19,3.19,0,0,1-2.37-.93,3.33,3.33,0,0,1-1-2.57v-8.5H140V48.53h1.38Z"/><path class="cls-1" d="M149.27,42.79H152V50h.05a4.39,4.39,0,0,1,3.58-1.68,4.64,4.64,0,0,1,3.12,1.24,4.89,4.89,0,0,1,1.46,3.69v9.43h-2.75V54.25a3.12,3.12,0,0,0-.77-2.27,2.55,2.55,0,0,0-1.95-.79,2.62,2.62,0,0,0-2,.79,3.08,3.08,0,0,0-.78,2.27v8.46h-2.76Z"/></g></g></svg>